<?xml version="1.0" encoding="UTF-8" standalone="no"?>
<!DOCTYPE svg PUBLIC "-//W3C//DTD SVG 1.1//EN"
 "http://www.w3.org/Graphics/SVG/1.1/DTD/svg11.dtd">
<!-- Generated by graphviz version 5.0.0 (20220707.1540)
 -->
<!-- Title: dependencies Pages: 1 -->
<svg width="1933pt" height="247pt"
 viewBox="0.00 0.00 1933.00 246.80" xmlns="http://www.w3.org/2000/svg" xmlns:xlink="http://www.w3.org/1999/xlink">
<g id="graph0" class="graph" transform="scale(1 1) rotate(0) translate(4 242.8)">
<title>dependencies</title>
<polygon fill="white" stroke="transparent" points="-4,4 -4,-242.8 1929,-242.8 1929,4 -4,4"/>
<text text-anchor="middle" x="962.5" y="-8.2" font-family="sans-serif" font-size="14.00">dependencies</text>
<g id="clust1" class="cluster">
<title>cluster_AppModule</title>
<polygon fill="none" stroke="black" stroke-dasharray="1,5" points="8,-32.8 8,-230.8 1917,-230.8 1917,-32.8 8,-32.8"/>
</g>
<g id="clust17" class="cluster">
<title>cluster_AppModule_providers</title>
<polygon fill="none" stroke="black" points="1751,-40.8 1751,-92.8 1909,-92.8 1909,-40.8 1751,-40.8"/>
</g>
<g id="clust14" class="cluster">
<title>cluster_AppModule_imports</title>
<polygon fill="none" stroke="black" points="1599,-40.8 1599,-92.8 1743,-92.8 1743,-40.8 1599,-40.8"/>
</g>
<g id="clust16" class="cluster">
<title>cluster_AppModule_bootstrap</title>
<polygon fill="none" stroke="black" points="910,-170.8 910,-222.8 1034,-222.8 1034,-170.8 910,-170.8"/>
</g>
<g id="clust2" class="cluster">
<title>cluster_AppModule_declarations</title>
<polygon fill="none" stroke="black" points="16,-40.8 16,-92.8 1591,-92.8 1591,-40.8 16,-40.8"/>
</g>
<!-- AppComponent -->
<g id="node1" class="node">
<title>AppComponent</title>
<polygon fill="#ffffb3" stroke="black" points="1582.94,-84.8 1477.06,-84.8 1477.06,-48.8 1582.94,-48.8 1582.94,-84.8"/>
<text text-anchor="middle" x="1530" y="-62.6" font-family="Times,serif" font-size="14.00">AppComponent</text>
</g>
<!-- AppModule -->
<g id="node12" class="node">
<title>AppModule</title>
<polygon fill="#8dd3c7" stroke="black" points="1013.66,-149.8 1010.66,-153.8 989.66,-153.8 986.66,-149.8 930.34,-149.8 930.34,-113.8 1013.66,-113.8 1013.66,-149.8"/>
<text text-anchor="middle" x="972" y="-127.6" font-family="Times,serif" font-size="14.00">AppModule</text>
</g>
<!-- AppComponent&#45;&gt;AppModule -->
<g id="edge1" class="edge">
<title>AppComponent&#45;&gt;AppModule</title>
<path fill="none" stroke="black" d="M1530,-85.02C1530,-105.17 1530,-134.8 1530,-134.8 1530,-134.8 1023.94,-134.8 1023.94,-134.8"/>
<polygon fill="black" stroke="black" points="1023.94,-131.3 1013.94,-134.8 1023.94,-138.3 1023.94,-131.3"/>
</g>
<!-- ApplicantComponent -->
<g id="node2" class="node">
<title>ApplicantComponent</title>
<polygon fill="#ffffb3" stroke="black" points="1459.04,-84.8 1322.96,-84.8 1322.96,-48.8 1459.04,-48.8 1459.04,-84.8"/>
<text text-anchor="middle" x="1391" y="-62.6" font-family="Times,serif" font-size="14.00">ApplicantComponent</text>
</g>
<!-- ApplicantComponent&#45;&gt;AppModule -->
<g id="edge2" class="edge">
<title>ApplicantComponent&#45;&gt;AppModule</title>
<path fill="none" stroke="black" d="M1391,-85.02C1391,-103.63 1391,-129.8 1391,-129.8 1391,-129.8 1023.71,-129.8 1023.71,-129.8"/>
<polygon fill="black" stroke="black" points="1023.71,-126.3 1013.71,-129.8 1023.71,-133.3 1023.71,-126.3"/>
</g>
<!-- DashboardComponent -->
<g id="node3" class="node">
<title>DashboardComponent</title>
<polygon fill="#ffffb3" stroke="black" points="1304.98,-84.8 1163.02,-84.8 1163.02,-48.8 1304.98,-48.8 1304.98,-84.8"/>
<text text-anchor="middle" x="1234" y="-62.6" font-family="Times,serif" font-size="14.00">DashboardComponent</text>
</g>
<!-- DashboardComponent&#45;&gt;AppModule -->
<g id="edge3" class="edge">
<title>DashboardComponent&#45;&gt;AppModule</title>
<path fill="none" stroke="black" d="M1234,-84.83C1234,-101.86 1234,-124.8 1234,-124.8 1234,-124.8 1023.8,-124.8 1023.8,-124.8"/>
<polygon fill="black" stroke="black" points="1023.8,-121.3 1013.8,-124.8 1023.8,-128.3 1023.8,-121.3"/>
</g>
<!-- DialogComponent -->
<g id="node4" class="node">
<title>DialogComponent</title>
<polygon fill="#ffffb3" stroke="black" points="1144.94,-84.8 1025.06,-84.8 1025.06,-48.8 1144.94,-48.8 1144.94,-84.8"/>
<text text-anchor="middle" x="1085" y="-62.6" font-family="Times,serif" font-size="14.00">DialogComponent</text>
</g>
<!-- DialogComponent&#45;&gt;AppModule -->
<g id="edge4" class="edge">
<title>DialogComponent&#45;&gt;AppModule</title>
<path fill="none" stroke="black" d="M1085.59,-85.04C1085.59,-100.37 1085.59,-119.8 1085.59,-119.8 1085.59,-119.8 1023.98,-119.8 1023.98,-119.8"/>
<polygon fill="black" stroke="black" points="1023.98,-116.3 1013.98,-119.8 1023.98,-123.3 1023.98,-116.3"/>
</g>
<!-- FilterPipe -->
<g id="node5" class="node">
<title>FilterPipe</title>
<polygon fill="#ffffb3" stroke="black" points="1007.72,-84.8 936.28,-84.8 936.28,-48.8 1007.72,-48.8 1007.72,-84.8"/>
<text text-anchor="middle" x="972" y="-62.6" font-family="Times,serif" font-size="14.00">FilterPipe</text>
</g>
<!-- FilterPipe&#45;&gt;AppModule -->
<g id="edge5" class="edge">
<title>FilterPipe&#45;&gt;AppModule</title>
<path fill="none" stroke="black" d="M972,-84.91C972,-84.91 972,-103.79 972,-103.79"/>
<polygon fill="black" stroke="black" points="968.5,-103.79 972,-113.79 975.5,-103.79 968.5,-103.79"/>
</g>
<!-- ForgotComponent -->
<g id="node6" class="node">
<title>ForgotComponent</title>
<polygon fill="#ffffb3" stroke="black" points="918.17,-84.8 799.83,-84.8 799.83,-48.8 918.17,-48.8 918.17,-84.8"/>
<text text-anchor="middle" x="859" y="-62.6" font-family="Times,serif" font-size="14.00">ForgotComponent</text>
</g>
<!-- ForgotComponent&#45;&gt;AppModule -->
<g id="edge6" class="edge">
<title>ForgotComponent&#45;&gt;AppModule</title>
<path fill="none" stroke="black" d="M858.6,-85.04C858.6,-100.37 858.6,-119.8 858.6,-119.8 858.6,-119.8 920.1,-119.8 920.1,-119.8"/>
<polygon fill="black" stroke="black" points="920.1,-123.3 930.1,-119.8 920.1,-116.3 920.1,-123.3"/>
</g>
<!-- HeaderComponent -->
<g id="node7" class="node">
<title>HeaderComponent</title>
<polygon fill="#ffffb3" stroke="black" points="781.75,-84.8 660.25,-84.8 660.25,-48.8 781.75,-48.8 781.75,-84.8"/>
<text text-anchor="middle" x="721" y="-62.6" font-family="Times,serif" font-size="14.00">HeaderComponent</text>
</g>
<!-- HeaderComponent&#45;&gt;AppModule -->
<g id="edge7" class="edge">
<title>HeaderComponent&#45;&gt;AppModule</title>
<path fill="none" stroke="black" d="M721,-84.83C721,-101.86 721,-124.8 721,-124.8 721,-124.8 920.27,-124.8 920.27,-124.8"/>
<polygon fill="black" stroke="black" points="920.27,-128.3 930.27,-124.8 920.27,-121.3 920.27,-128.3"/>
</g>
<!-- HomeComponent -->
<g id="node8" class="node">
<title>HomeComponent</title>
<polygon fill="#ffffb3" stroke="black" points="641.55,-84.8 526.45,-84.8 526.45,-48.8 641.55,-48.8 641.55,-84.8"/>
<text text-anchor="middle" x="584" y="-62.6" font-family="Times,serif" font-size="14.00">HomeComponent</text>
</g>
<!-- HomeComponent&#45;&gt;AppModule -->
<g id="edge8" class="edge">
<title>HomeComponent&#45;&gt;AppModule</title>
<path fill="none" stroke="black" d="M584,-85.02C584,-103.63 584,-129.8 584,-129.8 584,-129.8 920.11,-129.8 920.11,-129.8"/>
<polygon fill="black" stroke="black" points="920.11,-133.3 930.11,-129.8 920.11,-126.3 920.11,-133.3"/>
</g>
<!-- LoginformComponent -->
<g id="node9" class="node">
<title>LoginformComponent</title>
<polygon fill="#ffffb3" stroke="black" points="507.99,-84.8 366.01,-84.8 366.01,-48.8 507.99,-48.8 507.99,-84.8"/>
<text text-anchor="middle" x="437" y="-62.6" font-family="Times,serif" font-size="14.00">LoginformComponent</text>
</g>
<!-- LoginformComponent&#45;&gt;AppModule -->
<g id="edge9" class="edge">
<title>LoginformComponent&#45;&gt;AppModule</title>
<path fill="none" stroke="black" d="M437,-85.02C437,-105.17 437,-134.8 437,-134.8 437,-134.8 920.02,-134.8 920.02,-134.8"/>
<polygon fill="black" stroke="black" points="920.02,-138.3 930.02,-134.8 920.02,-131.3 920.02,-138.3"/>
</g>
<!-- RegistrationformComponent -->
<g id="node10" class="node">
<title>RegistrationformComponent</title>
<polygon fill="#ffffb3" stroke="black" points="348.48,-84.8 171.52,-84.8 171.52,-48.8 348.48,-48.8 348.48,-84.8"/>
<text text-anchor="middle" x="260" y="-62.6" font-family="Times,serif" font-size="14.00">RegistrationformComponent</text>
</g>
<!-- RegistrationformComponent&#45;&gt;AppModule -->
<g id="edge10" class="edge">
<title>RegistrationformComponent&#45;&gt;AppModule</title>
<path fill="none" stroke="black" d="M260,-84.84C260,-106.46 260,-139.8 260,-139.8 260,-139.8 920.12,-139.8 920.12,-139.8"/>
<polygon fill="black" stroke="black" points="920.12,-143.3 930.12,-139.8 920.12,-136.3 920.12,-143.3"/>
</g>
<!-- SideNavComponent -->
<g id="node11" class="node">
<title>SideNavComponent</title>
<polygon fill="#ffffb3" stroke="black" points="153.55,-84.8 24.45,-84.8 24.45,-48.8 153.55,-48.8 153.55,-84.8"/>
<text text-anchor="middle" x="89" y="-62.6" font-family="Times,serif" font-size="14.00">SideNavComponent</text>
</g>
<!-- SideNavComponent&#45;&gt;AppModule -->
<g id="edge11" class="edge">
<title>SideNavComponent&#45;&gt;AppModule</title>
<path fill="none" stroke="black" d="M89,-84.89C89,-107.93 89,-144.8 89,-144.8 89,-144.8 920.3,-144.8 920.3,-144.8"/>
<polygon fill="black" stroke="black" points="920.3,-148.3 930.3,-144.8 920.3,-141.3 920.3,-148.3"/>
</g>
<!-- AppComponent  -->
<g id="node14" class="node">
<title>AppComponent </title>
<polygon fill="#80b1d3" stroke="black" points="1026.44,-214.8 917.56,-214.8 917.56,-178.8 1026.44,-178.8 1026.44,-214.8"/>
<text text-anchor="middle" x="972" y="-192.6" font-family="Times,serif" font-size="14.00">AppComponent </text>
</g>
<!-- AppModule&#45;&gt;AppComponent  -->
<g id="edge13" class="edge">
<title>AppModule&#45;&gt;AppComponent </title>
<path fill="none" stroke="black" stroke-dasharray="1,5" d="M972,-149.91C972,-149.91 972,-168.79 972,-168.79"/>
<polygon fill="black" stroke="black" points="968.5,-168.79 972,-178.79 975.5,-168.79 968.5,-168.79"/>
</g>
<!-- AppRoutingModule -->
<g id="node13" class="node">
<title>AppRoutingModule</title>
<polygon fill="#8dd3c7" stroke="black" points="1735.28,-84.8 1732.28,-88.8 1711.28,-88.8 1708.28,-84.8 1606.72,-84.8 1606.72,-48.8 1735.28,-48.8 1735.28,-84.8"/>
<text text-anchor="middle" x="1671" y="-62.6" font-family="Times,serif" font-size="14.00">AppRoutingModule</text>
</g>
<!-- AppRoutingModule&#45;&gt;AppModule -->
<g id="edge12" class="edge">
<title>AppRoutingModule&#45;&gt;AppModule</title>
<path fill="none" stroke="black" d="M1671,-84.84C1671,-106.46 1671,-139.8 1671,-139.8 1671,-139.8 1023.89,-139.8 1023.89,-139.8"/>
<polygon fill="black" stroke="black" points="1023.89,-136.3 1013.89,-139.8 1023.89,-143.3 1023.89,-136.3"/>
</g>
<!-- InhouseService -->
<g id="node15" class="node">
<title>InhouseService</title>
<ellipse fill="#fdb462" stroke="black" cx="1830" cy="-66.8" rx="70.63" ry="18"/>
<text text-anchor="middle" x="1830" y="-62.6" font-family="Times,serif" font-size="14.00">InhouseService</text>
</g>
<!-- InhouseService&#45;&gt;AppModule -->
<g id="edge14" class="edge">
<title>InhouseService&#45;&gt;AppModule</title>
<path fill="none" stroke="black" d="M1830,-84.89C1830,-107.93 1830,-144.8 1830,-144.8 1830,-144.8 1023.67,-144.8 1023.67,-144.8"/>
<polygon fill="black" stroke="black" points="1023.67,-141.3 1013.67,-144.8 1023.67,-148.3 1023.67,-141.3"/>
</g>
</g>
</svg>
